Coordinates
version=1
nRows=19
nColumns=34
inDegrees=yes

Units are S.I. units (second, meters, Newtons, ...)
If the header above contains a line with 'inDegrees', this indicates whether rotational values are in degrees (yes) or radians (no).

endheader
time	pelvis_tilt	pelvis_list	pelvis_rotation	pelvis_tx	pelvis_ty	pelvis_tz	hip_flexion_r	hip_adduction_r	hip_rotation_r	knee_angle_r	ankle_angle_r	subtalar_angle_r	mtp_angle_r	hip_flexion_l	hip_adduction_l	hip_rotation_l	knee_angle_l	ankle_angle_l	subtalar_angle_l	mtp_angle_l	lumbar_extension	lumbar_bending	lumbar_rotation	arm_flex_r	arm_add_r	arm_rot_r	elbow_flex_r	pro_sup_r	arm_flex_l	arm_add_l	arm_rot_l	elbow_flex_l	pro_sup_l
      0.00000000	     -1.65791655	     -3.72120496	   -174.73116964	      0.06715777	      1.10173273	      0.10024329	     10.78666704	     -3.19488497	     -4.80032127	      6.10560560	     -6.85066481	      1.41016110	      0.00000000	     -5.00719811	      2.39111499	     -2.25707717	     20.39089166	     -0.39192588	    -12.19987538	      0.00000000	    -17.08670522	      0.57530418	     -8.16974924	      7.38277986	     -5.03448106	     12.26807405	     27.20873636	     72.98427396	      6.86383348	     -8.36861953	      9.77790221	     52.21215781	     81.53066332
      0.00833330	      0.12109532	     -4.10314871	   -174.12379573	      0.06471327	      1.09619483	      0.10192027	     12.09715001	     -3.57107870	     -1.53296544	      4.88491937	     -8.44106345	     -0.80958807	      0.00000000	     -4.70607618	      2.66511759	     -3.03168830	     18.56186829	     -1.30585597	     -9.78072485	      0.00000000	    -13.49074351	     -0.61344264	     -7.09163953	      5.38721140	     -3.89905875	      7.84966750	     26.99823052	     74.23738623	      6.16064699	     -7.79886637	     10.77468236	     52.40498021	     81.91354105
      0.01666670	      0.83742383	     -4.03784896	   -174.17745834	      0.06374526	      1.09680353	      0.10281460	     12.93680701	     -3.99571067	     -1.05894801	      5.35355214	     -8.11834521	      0.00695449	      0.00000000	     -3.76434354	      2.45826335	     -4.23485457	     19.85114418	     -0.72979880	     -7.94987132	      0.00000000	    -12.96907482	     -0.51289120	     -6.61699734	      4.91823999	     -3.41138345	      2.74561059	     27.72957895	     76.49987770	      6.32787951	     -6.60660909	      8.50894852	     51.81169736	     82.58600275
      0.02500000	      1.67889330	     -4.00504539	   -174.18473719	      0.06286431	      1.09526932	      0.10296978	     13.63105761	     -4.16116014	     -0.66008212	      4.85093136	     -7.86641417	      0.58634997	      0.00000000	     -2.60575403	      2.56144761	     -3.90218607	     20.31809516	     -1.57960017	     -8.48375607	      0.00000000	    -11.75889865	     -0.61492183	     -6.48660706	      4.57223149	     -2.81680013	     -1.03729947	     27.38128354	     79.56184880	      5.79958427	     -6.33364302	      7.65148693	     52.37753022	     84.01852749
      0.03333330	      1.73188696	     -3.75414071	   -174.16395872	      0.06255708	      1.09506442	      0.10288897	     13.58490779	     -3.92114914	     -0.57185018	      4.72230535	     -7.89074460	      0.73129150	      0.00000000	     -2.22895749	      2.22375252	     -3.99356098	     21.16674456	     -1.08378356	     -8.67152945	      0.00000000	    -11.78006462	     -0.30455432	     -6.37250620	      4.51044900	     -2.76012786	     -1.23872706	     27.46687725	     79.88856792	      5.85352691	     -6.13896599	      7.60570005	     52.57743494	     84.16695342
      0.04166670	      2.13223717	     -3.74828402	   -174.18938923	      0.06249173	      1.09417727	      0.10293363	     14.12021975	     -3.91539994	     -0.58920149	      4.96270848	     -7.52484094	      1.32053165	      0.00000000	     -1.47650859	      2.28554125	     -3.93467864	     21.76036264	     -0.67899814	     -8.98807072	      0.00000000	    -11.20525679	     -0.42154189	     -6.40751880	      4.16936882	     -2.63605919	     -2.07399840	     27.70080592	     80.68632858	      5.45038578	     -6.09179806	      7.52832297	     53.14427161	     84.59359659
      0.05000000	      2.10220246	     -3.78466279	   -174.21348681	      0.06249093	      1.09402476	      0.10304196	     14.04995802	     -3.92661220	     -0.55360294	      4.97888880	     -7.49129440	      1.35194164	      0.00000000	     -1.41720404	      2.30636034	     -4.03211386	     22.00127761	     -0.61711949	     -9.06335575	      0.00000000	    -11.20744788	     -0.54407195	     -6.52418348	      4.08520242	     -2.65020241	     -2.11541450	     27.69197382	     80.72038345	      5.40932848	     -5.96747144	      7.57672456	     53.16417029	     84.61652933
      0.05833330	      2.10728804	     -3.78567293	   -174.20461891	      0.06252975	      1.09369268	      0.10322348	     14.02168761	     -3.89600259	     -0.55221561	      4.99536192	     -7.48954840	      1.35507943	      0.00000000	     -1.39816412	      2.34285833	     -4.04324041	     22.00422882	     -0.60862488	     -9.06913967	      0.00000000	    -11.20451603	     -0.54662711	     -6.52559348	      4.08420954	     -2.64944596	     -2.11720683	     27.69288499	     80.72196449	      5.40715130	     -5.96566792	      7.57823684	     53.16571572	     84.61768707
      0.06666670	      2.61302446	     -3.91600656	   -174.39251975	      0.06276117	      1.09219647	      0.10328808	     14.81324716	     -4.07323875	     -0.50288644	      5.49906168	     -6.58541558	      2.14223091	      0.00000000	     -0.63288262	      2.52874808	     -4.47933451	     22.55952060	      0.22268903	     -9.19472989	      0.00000000	    -10.60024736	     -0.74599154	     -6.45049467	      3.82866380	     -2.58373615	     -3.00699553	     28.11748217	     81.53106888	      4.97392587	     -6.08531145	      7.97179980	     54.01316119	     85.24738819
      0.07500000	      2.56075952	     -3.95237557	   -174.42390101	      0.06265200	      1.09163904	      0.10357035	     14.76198512	     -4.10885126	     -0.50760762	      5.56183747	     -6.64853142	      2.18486360	      0.00000000	     -0.69446665	      2.60082100	     -4.56629400	     22.59434559	      0.48240445	     -9.34342272	      0.00000000	    -10.49578794	     -0.76963757	     -6.48874943	      3.75032178	     -2.63510535	     -3.08437481	     28.12149922	     81.61049862	      4.90714285	     -6.06997047	      8.00333485	     53.98889823	     85.31238999
      0.08333330	      2.56980250	     -3.94071968	   -174.43492512	      0.06253477	      1.09115552	      0.10377246	     14.75009587	     -4.10411298	     -0.50779542	      5.56605090	     -6.64429598	      2.18497444	      0.00000000	     -0.69360201	      2.62518519	     -4.57056131	     22.59822330	      0.49129535	     -9.34635460	      0.00000000	    -10.49411235	     -0.76581750	     -6.49136384	      3.74606157	     -2.63717444	     -3.08712736	     28.12127753	     81.61337272	      4.90598496	     -6.06829545	      8.00545995	     53.98906756	     85.31521873
      0.09166670	      2.55426618	     -3.99704343	   -174.56303206	      0.06225705	      1.09053583	      0.10406489	     14.74213602	     -4.15738728	     -0.37637197	      5.61249105	     -6.41670975	      2.22441446	      0.00000000	     -0.74466018	      2.73868770	     -4.67534653	     22.60602943	      0.89788948	     -9.52747988	      0.00000000	    -10.34178373	     -0.64293019	     -6.47660100	      3.66644230	     -2.78745961	     -3.17909402	     28.14315181	     81.69490661	      4.73182358	     -5.99410483	      8.09638159	     53.98987680	     85.41037481
      0.10000000	      2.55535154	     -3.99419196	   -174.56449728	      0.06226962	      1.09006551	      0.10410453	     14.73890984	     -4.15539045	     -0.37611528	      5.61397072	     -6.41601188	      2.22459860	      0.00000000	     -0.74358180	      2.74208562	     -4.67526168	     22.60516009	      0.89844499	     -9.52718694	      0.00000000	    -10.34172007	     -0.64300589	     -6.47666099	      3.66588818	     -2.78747198	     -3.17932508	     28.14319012	     81.69520349	      4.73168330	     -5.99408900	      8.09661158	     53.98994881	     85.41074145
      0.10833330	      2.57194962	     -3.96614099	   -174.73999874	      0.06216668	      1.08960250	      0.10413975	     14.77040946	     -4.09707564	     -0.33217422	      5.60307721	     -6.32646077	      2.23299701	      0.00000000	     -0.76052213	      2.78476573	     -4.61028702	     22.58460967	      0.98570186	     -9.52455772	      0.00000000	    -10.29393575	     -0.60325884	     -6.48763421	      3.59931774	     -2.81645134	     -3.20011746	     28.14237381	     81.71580788	      4.70018065	     -5.97387426	      8.12347610	     54.00742881	     85.44077865
      0.11666670	      2.57313026	     -3.96304664	   -174.73987560	      0.06224229	      1.08936188	      0.10418864	     14.77035851	     -4.09793549	     -0.33014974	      5.60338342	     -6.32467176	      2.23362544	      0.00000000	     -0.76228519	      2.78584720	     -4.60983644	     22.58371592	      0.98770657	     -9.52478530	      0.00000000	    -10.29248860	     -0.60221790	     -6.48637688	      3.59890786	     -2.81682999	     -3.20046198	     28.14273669	     81.71622117	      4.69858145	     -5.97386694	      8.12394194	     54.00767828	     85.44141141
      0.12500000	      2.68213758	     -3.88648825	   -174.94545619	      0.06180279	      1.08895080	      0.10433618	     14.88986765	     -3.99289386	      0.17590076	      5.60417906	     -5.86912921	      2.39628054	      0.00000000	     -0.81811472	      2.83287553	     -4.36839452	     22.34329450	      1.50086501	     -9.57113242	      0.00000000	     -9.88027409	     -0.32400198	     -6.26756299	      3.43363360	     -3.00253650	     -3.29959891	     28.23006907	     81.81517127	      4.35511398	     -5.87690284	      8.27248123	     54.14502776	     85.61050106
      0.13333330	      2.69780199	     -3.88857466	   -175.04909725	      0.06188394	      1.08877092	      0.10410596	     14.92798762	     -3.96300593	      0.17427776	      5.57653013	     -5.84073688	      2.39584232	      0.00000000	     -0.79084571	      2.84047326	     -4.37531960	     22.38960600	      1.50365782	     -9.56102116	      0.00000000	     -9.85769226	     -0.34214006	     -6.29228710	      3.37387135	     -3.01967803	     -3.31317907	     28.23361392	     81.83006784	      4.36915303	     -5.85587088	      8.29137391	     54.17721568	     85.63690414
      0.14166670	      2.70440575	     -3.89576302	   -175.05128270	      0.06186988	      1.08873431	      0.10395243	     14.94003483	     -3.96146349	      0.17639101	      5.57055344	     -5.83839725	      2.39697410	      0.00000000	     -0.80165270	      2.83447996	     -4.37446549	     22.39649932	      1.50468851	     -9.56085282	      0.00000000	     -9.85384801	     -0.34164263	     -6.29195797	      3.37154329	     -3.02082557	     -3.31420221	     28.23504070	     81.83132241	      4.36986096	     -5.85423708	      8.29296697	     54.18061320	     85.63922536
      0.15000000	      2.71974931	     -3.91224260	   -175.06650522	      0.06164794	      1.08863355	      0.10364794	     14.94475518	     -3.95021450	      0.17909400	      5.56600552	     -5.83409569	      2.39885065	      0.00000000	     -0.80699175	      2.82789998	     -4.37079451	     22.40385782	      1.50639155	     -9.56029842	      0.00000000	     -9.84589987	     -0.34080318	     -6.29528220	      3.36569873	     -3.02352866	     -3.31602020	     28.23699201	     81.83324926	      4.37446380	     -5.84952579	      8.29621355	     54.18831832	     85.64310140
